<mxfile host="app.diagrams.net" agent="Mozilla/5.0 (Windows NT 10.0; Win64; x64) AppleWebKit/537.36 (KHTML, like Gecko) Chrome/135.0.0.0 Safari/537.36 Edg/135.0.0.0" version="26.2.13">
  <diagram name="Page-1" id="0783ab3e-0a74-02c8-0abd-f7b4e66b4bec">
    <mxGraphModel dx="1884" dy="1098" grid="1" gridSize="10" guides="1" tooltips="1" connect="1" arrows="1" fold="1" page="1" pageScale="1" pageWidth="850" pageHeight="1100" background="none" math="0" shadow="0">
      <root>
        <mxCell id="0" />
        <mxCell id="1" parent="0" />
        <mxCell id="1c1d494c118603dd-1" value="Đăng kí tài khoản" style="swimlane;html=1;childLayout=stackLayout;startSize=20;rounded=0;shadow=0;comic=0;labelBackgroundColor=none;strokeWidth=1;fontFamily=Verdana;fontSize=12;align=center;" parent="1" vertex="1">
          <mxGeometry x="40" y="20" width="1021" height="1400" as="geometry" />
        </mxCell>
        <mxCell id="1c1d494c118603dd-2" value="User" style="swimlane;html=1;startSize=20;" parent="1c1d494c118603dd-1" vertex="1">
          <mxGeometry y="20" width="370" height="1380" as="geometry" />
        </mxCell>
        <mxCell id="JDyuIg-nVPSQk0EnNHT6-1" value="" style="ellipse;html=1;shape=startState;fillColor=#000000;strokeColor=#ff0000;" vertex="1" parent="1c1d494c118603dd-2">
          <mxGeometry x="70" y="50" width="30" height="30" as="geometry" />
        </mxCell>
        <mxCell id="JDyuIg-nVPSQk0EnNHT6-2" value="" style="edgeStyle=orthogonalEdgeStyle;html=1;verticalAlign=bottom;endArrow=open;endSize=8;strokeColor=#ff0000;rounded=0;" edge="1" source="JDyuIg-nVPSQk0EnNHT6-1" parent="1c1d494c118603dd-2">
          <mxGeometry relative="1" as="geometry">
            <mxPoint x="85" y="140" as="targetPoint" />
          </mxGeometry>
        </mxCell>
        <mxCell id="JDyuIg-nVPSQk0EnNHT6-3" value="Chọn chức năng đăng kí tài khoản" style="rounded=1;whiteSpace=wrap;html=1;" vertex="1" parent="1c1d494c118603dd-2">
          <mxGeometry x="25" y="140" width="120" height="60" as="geometry" />
        </mxCell>
        <mxCell id="JDyuIg-nVPSQk0EnNHT6-22" value="" style="html=1;points=[];perimeter=orthogonalPerimeter;fillColor=strokeColor;rotation=-90;" vertex="1" parent="1c1d494c118603dd-2">
          <mxGeometry x="180" y="130" width="5" height="320" as="geometry" />
        </mxCell>
        <mxCell id="JDyuIg-nVPSQk0EnNHT6-25" value="Điền tên đăng nhập" style="rounded=1;whiteSpace=wrap;html=1;" vertex="1" parent="1c1d494c118603dd-2">
          <mxGeometry x="10" y="360" width="70" height="120" as="geometry" />
        </mxCell>
        <mxCell id="JDyuIg-nVPSQk0EnNHT6-26" value="Điền mật khẩu" style="rounded=1;whiteSpace=wrap;html=1;" vertex="1" parent="1c1d494c118603dd-2">
          <mxGeometry x="90" y="360" width="70" height="120" as="geometry" />
        </mxCell>
        <mxCell id="JDyuIg-nVPSQk0EnNHT6-28" value="Điền thông tin cá nhân" style="rounded=1;whiteSpace=wrap;html=1;" vertex="1" parent="1c1d494c118603dd-2">
          <mxGeometry x="170" y="360" width="80" height="120" as="geometry" />
        </mxCell>
        <mxCell id="JDyuIg-nVPSQk0EnNHT6-30" value="Chọn role cho tài khoản" style="rounded=1;whiteSpace=wrap;html=1;" vertex="1" parent="1c1d494c118603dd-2">
          <mxGeometry x="260" y="360" width="70" height="120" as="geometry" />
        </mxCell>
        <mxCell id="JDyuIg-nVPSQk0EnNHT6-29" value="" style="endArrow=classic;html=1;rounded=0;exitX=0.5;exitY=0.851;exitDx=0;exitDy=0;exitPerimeter=0;" edge="1" parent="1c1d494c118603dd-2" source="JDyuIg-nVPSQk0EnNHT6-22" target="JDyuIg-nVPSQk0EnNHT6-30">
          <mxGeometry width="50" height="50" relative="1" as="geometry">
            <mxPoint x="370" y="400" as="sourcePoint" />
            <mxPoint x="282" y="360" as="targetPoint" />
          </mxGeometry>
        </mxCell>
        <mxCell id="JDyuIg-nVPSQk0EnNHT6-31" value="" style="html=1;points=[];perimeter=orthogonalPerimeter;fillColor=strokeColor;rotation=-90;" vertex="1" parent="1c1d494c118603dd-2">
          <mxGeometry x="170" y="360" width="5" height="320" as="geometry" />
        </mxCell>
        <mxCell id="JDyuIg-nVPSQk0EnNHT6-32" value="" style="endArrow=classic;html=1;rounded=0;exitX=0.5;exitY=1;exitDx=0;exitDy=0;entryX=0.74;entryY=0.1;entryDx=0;entryDy=0;entryPerimeter=0;" edge="1" parent="1c1d494c118603dd-2" source="JDyuIg-nVPSQk0EnNHT6-25" target="JDyuIg-nVPSQk0EnNHT6-31">
          <mxGeometry width="50" height="50" relative="1" as="geometry">
            <mxPoint x="370" y="500" as="sourcePoint" />
            <mxPoint x="420" y="450" as="targetPoint" />
          </mxGeometry>
        </mxCell>
        <mxCell id="JDyuIg-nVPSQk0EnNHT6-33" value="" style="endArrow=classic;html=1;rounded=0;entryX=0.74;entryY=0.34;entryDx=0;entryDy=0;entryPerimeter=0;" edge="1" parent="1c1d494c118603dd-2" target="JDyuIg-nVPSQk0EnNHT6-31">
          <mxGeometry width="50" height="50" relative="1" as="geometry">
            <mxPoint x="121" y="480" as="sourcePoint" />
            <mxPoint x="420" y="450" as="targetPoint" />
          </mxGeometry>
        </mxCell>
        <mxCell id="JDyuIg-nVPSQk0EnNHT6-34" value="" style="endArrow=classic;html=1;rounded=0;exitX=0.5;exitY=1;exitDx=0;exitDy=0;entryX=0.58;entryY=0.617;entryDx=0;entryDy=0;entryPerimeter=0;" edge="1" parent="1c1d494c118603dd-2" source="JDyuIg-nVPSQk0EnNHT6-28" target="JDyuIg-nVPSQk0EnNHT6-31">
          <mxGeometry width="50" height="50" relative="1" as="geometry">
            <mxPoint x="370" y="500" as="sourcePoint" />
            <mxPoint x="420" y="450" as="targetPoint" />
          </mxGeometry>
        </mxCell>
        <mxCell id="JDyuIg-nVPSQk0EnNHT6-35" value="" style="endArrow=classic;html=1;rounded=0;exitX=0.5;exitY=1;exitDx=0;exitDy=0;entryX=0.74;entryY=0.885;entryDx=0;entryDy=0;entryPerimeter=0;" edge="1" parent="1c1d494c118603dd-2" source="JDyuIg-nVPSQk0EnNHT6-30" target="JDyuIg-nVPSQk0EnNHT6-31">
          <mxGeometry width="50" height="50" relative="1" as="geometry">
            <mxPoint x="370" y="500" as="sourcePoint" />
            <mxPoint x="420" y="450" as="targetPoint" />
          </mxGeometry>
        </mxCell>
        <mxCell id="JDyuIg-nVPSQk0EnNHT6-37" value="Gửi đăng ký tài khoản" style="rounded=1;whiteSpace=wrap;html=1;" vertex="1" parent="1c1d494c118603dd-2">
          <mxGeometry x="100" y="570" width="140" height="60" as="geometry" />
        </mxCell>
        <mxCell id="1c1d494c118603dd-3" value="Hệ thống" style="swimlane;html=1;startSize=20;" parent="1c1d494c118603dd-1" vertex="1">
          <mxGeometry x="370" y="20" width="400" height="1380" as="geometry" />
        </mxCell>
        <mxCell id="JDyuIg-nVPSQk0EnNHT6-4" value="Hiển thị form đăng kí tài khoản" style="rounded=1;whiteSpace=wrap;html=1;" vertex="1" parent="1c1d494c118603dd-3">
          <mxGeometry x="110" y="140" width="120" height="60" as="geometry" />
        </mxCell>
        <mxCell id="JDyuIg-nVPSQk0EnNHT6-15" value="Kiểm tra tên đăng nhập đã tồn tại" style="rounded=1;whiteSpace=wrap;html=1;" vertex="1" parent="1c1d494c118603dd-3">
          <mxGeometry x="60" y="570" width="150" height="60" as="geometry" />
        </mxCell>
        <mxCell id="JDyuIg-nVPSQk0EnNHT6-39" value="" style="rhombus;whiteSpace=wrap;html=1;fontColor=#000000;fillColor=#ffffc0;strokeColor=#ff0000;" vertex="1" parent="1c1d494c118603dd-3">
          <mxGeometry x="95" y="690" width="80" height="40" as="geometry" />
        </mxCell>
        <mxCell id="JDyuIg-nVPSQk0EnNHT6-40" value="Đã tồn tại" style="edgeStyle=orthogonalEdgeStyle;html=1;align=left;verticalAlign=bottom;endArrow=open;endSize=8;strokeColor=#ff0000;rounded=0;" edge="1" source="JDyuIg-nVPSQk0EnNHT6-39" parent="1c1d494c118603dd-3">
          <mxGeometry x="-1" relative="1" as="geometry">
            <mxPoint x="280" y="710" as="targetPoint" />
          </mxGeometry>
        </mxCell>
        <mxCell id="JDyuIg-nVPSQk0EnNHT6-41" value="Chưa tồn tại" style="edgeStyle=orthogonalEdgeStyle;html=1;align=left;verticalAlign=top;endArrow=open;endSize=8;strokeColor=#ff0000;rounded=0;" edge="1" source="JDyuIg-nVPSQk0EnNHT6-39" parent="1c1d494c118603dd-3">
          <mxGeometry x="-1" relative="1" as="geometry">
            <mxPoint x="135" y="790" as="targetPoint" />
            <mxPoint as="offset" />
          </mxGeometry>
        </mxCell>
        <mxCell id="JDyuIg-nVPSQk0EnNHT6-43" value="" style="endArrow=classic;html=1;rounded=0;exitX=0.5;exitY=1;exitDx=0;exitDy=0;entryX=0.5;entryY=0;entryDx=0;entryDy=0;" edge="1" parent="1c1d494c118603dd-3" source="JDyuIg-nVPSQk0EnNHT6-15" target="JDyuIg-nVPSQk0EnNHT6-39">
          <mxGeometry width="50" height="50" relative="1" as="geometry">
            <mxPoint y="600" as="sourcePoint" />
            <mxPoint x="50" y="550" as="targetPoint" />
          </mxGeometry>
        </mxCell>
        <mxCell id="JDyuIg-nVPSQk0EnNHT6-44" value="Thông báo đăng ký thất bại" style="rounded=1;whiteSpace=wrap;html=1;" vertex="1" parent="1c1d494c118603dd-3">
          <mxGeometry x="260" y="680" width="120" height="60" as="geometry" />
        </mxCell>
        <mxCell id="JDyuIg-nVPSQk0EnNHT6-45" value="Kiểm tra Role lựa chọn" style="rounded=1;whiteSpace=wrap;html=1;" vertex="1" parent="1c1d494c118603dd-3">
          <mxGeometry x="75" y="790" width="120" height="60" as="geometry" />
        </mxCell>
        <mxCell id="JDyuIg-nVPSQk0EnNHT6-46" value="" style="endArrow=classic;html=1;rounded=0;exitX=0.5;exitY=0;exitDx=0;exitDy=0;entryX=1;entryY=0.5;entryDx=0;entryDy=0;" edge="1" parent="1c1d494c118603dd-3" source="JDyuIg-nVPSQk0EnNHT6-44" target="JDyuIg-nVPSQk0EnNHT6-4">
          <mxGeometry width="50" height="50" relative="1" as="geometry">
            <mxPoint y="510" as="sourcePoint" />
            <mxPoint x="50" y="460" as="targetPoint" />
            <Array as="points">
              <mxPoint x="320" y="170" />
            </Array>
          </mxGeometry>
        </mxCell>
        <mxCell id="JDyuIg-nVPSQk0EnNHT6-51" value="" style="rhombus;whiteSpace=wrap;html=1;fontColor=#000000;fillColor=#ffffc0;strokeColor=#ff0000;" vertex="1" parent="1c1d494c118603dd-3">
          <mxGeometry x="95" y="880" width="80" height="40" as="geometry" />
        </mxCell>
        <mxCell id="JDyuIg-nVPSQk0EnNHT6-52" value="Role là Staff" style="edgeStyle=orthogonalEdgeStyle;html=1;align=left;verticalAlign=bottom;endArrow=open;endSize=8;strokeColor=#ff0000;rounded=0;" edge="1" source="JDyuIg-nVPSQk0EnNHT6-51" parent="1c1d494c118603dd-3">
          <mxGeometry x="-1" relative="1" as="geometry">
            <mxPoint x="250" y="900" as="targetPoint" />
          </mxGeometry>
        </mxCell>
        <mxCell id="JDyuIg-nVPSQk0EnNHT6-53" value="Role là User" style="edgeStyle=orthogonalEdgeStyle;html=1;align=left;verticalAlign=top;endArrow=open;endSize=8;strokeColor=#ff0000;rounded=0;" edge="1" source="JDyuIg-nVPSQk0EnNHT6-51" parent="1c1d494c118603dd-3">
          <mxGeometry x="-1" relative="1" as="geometry">
            <mxPoint x="135" y="1057" as="targetPoint" />
          </mxGeometry>
        </mxCell>
        <mxCell id="JDyuIg-nVPSQk0EnNHT6-55" value="Gửi thông báo cho Admin xác nhận" style="rounded=1;whiteSpace=wrap;html=1;" vertex="1" parent="1c1d494c118603dd-3">
          <mxGeometry x="250" y="870" width="110" height="60" as="geometry" />
        </mxCell>
        <mxCell id="JDyuIg-nVPSQk0EnNHT6-57" value="" style="html=1;points=[];perimeter=orthogonalPerimeter;fillColor=strokeColor;rotation=-90;" vertex="1" parent="1c1d494c118603dd-3">
          <mxGeometry x="150" y="930" width="5" height="260" as="geometry" />
        </mxCell>
        <mxCell id="JDyuIg-nVPSQk0EnNHT6-60" value="Thông báo đăng kí thành công" style="rounded=1;whiteSpace=wrap;html=1;" vertex="1" parent="1c1d494c118603dd-3">
          <mxGeometry x="15" y="1120" width="120" height="60" as="geometry" />
        </mxCell>
        <mxCell id="JDyuIg-nVPSQk0EnNHT6-61" value="Lưu tài khoản mới tạo vào CSDL" style="rounded=1;whiteSpace=wrap;html=1;" vertex="1" parent="1c1d494c118603dd-3">
          <mxGeometry x="160" y="1120" width="120" height="60" as="geometry" />
        </mxCell>
        <mxCell id="JDyuIg-nVPSQk0EnNHT6-58" value="" style="endArrow=classic;html=1;rounded=0;exitX=0.1;exitY=0.2;exitDx=0;exitDy=0;exitPerimeter=0;entryX=0.5;entryY=0;entryDx=0;entryDy=0;" edge="1" parent="1c1d494c118603dd-3" source="JDyuIg-nVPSQk0EnNHT6-57" target="JDyuIg-nVPSQk0EnNHT6-60">
          <mxGeometry width="50" height="50" relative="1" as="geometry">
            <mxPoint x="-40" y="920" as="sourcePoint" />
            <mxPoint x="71" y="1040" as="targetPoint" />
          </mxGeometry>
        </mxCell>
        <mxCell id="JDyuIg-nVPSQk0EnNHT6-59" value="" style="endArrow=classic;html=1;rounded=0;exitX=0.122;exitY=0.758;exitDx=0;exitDy=0;exitPerimeter=0;entryX=0.5;entryY=0;entryDx=0;entryDy=0;" edge="1" parent="1c1d494c118603dd-3" source="JDyuIg-nVPSQk0EnNHT6-57" target="JDyuIg-nVPSQk0EnNHT6-61">
          <mxGeometry width="50" height="50" relative="1" as="geometry">
            <mxPoint x="-40" y="1020" as="sourcePoint" />
            <mxPoint x="210" y="1040" as="targetPoint" />
          </mxGeometry>
        </mxCell>
        <mxCell id="JDyuIg-nVPSQk0EnNHT6-72" value="" style="html=1;points=[];perimeter=orthogonalPerimeter;fillColor=strokeColor;rotation=-90;" vertex="1" parent="1c1d494c118603dd-3">
          <mxGeometry x="150" y="1100" width="5" height="260" as="geometry" />
        </mxCell>
        <mxCell id="JDyuIg-nVPSQk0EnNHT6-73" value="" style="endArrow=classic;html=1;rounded=0;exitX=0.5;exitY=1;exitDx=0;exitDy=0;entryX=1.041;entryY=0.202;entryDx=0;entryDy=0;entryPerimeter=0;" edge="1" parent="1c1d494c118603dd-3" source="JDyuIg-nVPSQk0EnNHT6-60" target="JDyuIg-nVPSQk0EnNHT6-72">
          <mxGeometry width="50" height="50" relative="1" as="geometry">
            <mxPoint x="-60" y="1150" as="sourcePoint" />
            <mxPoint x="-10" y="1100" as="targetPoint" />
          </mxGeometry>
        </mxCell>
        <mxCell id="JDyuIg-nVPSQk0EnNHT6-74" value="" style="endArrow=classic;html=1;rounded=0;exitX=0.5;exitY=1;exitDx=0;exitDy=0;entryX=0.868;entryY=0.756;entryDx=0;entryDy=0;entryPerimeter=0;" edge="1" parent="1c1d494c118603dd-3" target="JDyuIg-nVPSQk0EnNHT6-72">
          <mxGeometry width="50" height="50" relative="1" as="geometry">
            <mxPoint x="219.73000000000002" y="1179.9999999999998" as="sourcePoint" />
            <mxPoint x="220" y="1220" as="targetPoint" />
          </mxGeometry>
        </mxCell>
        <mxCell id="JDyuIg-nVPSQk0EnNHT6-77" value="" style="ellipse;html=1;shape=endState;fillColor=#000000;strokeColor=#ff0000;" vertex="1" parent="1c1d494c118603dd-3">
          <mxGeometry x="135" y="1280" width="30" height="30" as="geometry" />
        </mxCell>
        <mxCell id="1c1d494c118603dd-4" value="Admin" style="swimlane;html=1;startSize=20;" parent="1c1d494c118603dd-1" vertex="1">
          <mxGeometry x="770" y="20" width="250" height="1380" as="geometry" />
        </mxCell>
        <mxCell id="JDyuIg-nVPSQk0EnNHT6-62" value="Thực hiện xác nhận" style="rounded=1;whiteSpace=wrap;html=1;" vertex="1" parent="1c1d494c118603dd-4">
          <mxGeometry x="30" y="870" width="120" height="60" as="geometry" />
        </mxCell>
        <mxCell id="JDyuIg-nVPSQk0EnNHT6-67" value="" style="rhombus;whiteSpace=wrap;html=1;fontColor=#000000;fillColor=#ffffc0;strokeColor=#ff0000;" vertex="1" parent="1c1d494c118603dd-4">
          <mxGeometry x="50" y="970" width="80" height="40" as="geometry" />
        </mxCell>
        <mxCell id="JDyuIg-nVPSQk0EnNHT6-70" value="" style="endArrow=classic;html=1;rounded=0;exitX=0.5;exitY=1;exitDx=0;exitDy=0;entryX=0.5;entryY=0;entryDx=0;entryDy=0;" edge="1" parent="1c1d494c118603dd-4" source="JDyuIg-nVPSQk0EnNHT6-62" target="JDyuIg-nVPSQk0EnNHT6-67">
          <mxGeometry width="50" height="50" relative="1" as="geometry">
            <mxPoint x="30" y="920" as="sourcePoint" />
            <mxPoint x="80" y="870" as="targetPoint" />
          </mxGeometry>
        </mxCell>
        <mxCell id="JDyuIg-nVPSQk0EnNHT6-71" value="Đồng ý" style="text;html=1;align=center;verticalAlign=middle;whiteSpace=wrap;rounded=0;" vertex="1" parent="1c1d494c118603dd-4">
          <mxGeometry y="1000" width="60" height="30" as="geometry" />
        </mxCell>
        <mxCell id="JDyuIg-nVPSQk0EnNHT6-5" value="" style="endArrow=classic;html=1;rounded=0;exitX=1;exitY=0.5;exitDx=0;exitDy=0;entryX=0;entryY=0.5;entryDx=0;entryDy=0;" edge="1" parent="1c1d494c118603dd-1" source="JDyuIg-nVPSQk0EnNHT6-3" target="JDyuIg-nVPSQk0EnNHT6-4">
          <mxGeometry width="50" height="50" relative="1" as="geometry">
            <mxPoint x="360" y="320" as="sourcePoint" />
            <mxPoint x="410" y="270" as="targetPoint" />
          </mxGeometry>
        </mxCell>
        <mxCell id="JDyuIg-nVPSQk0EnNHT6-6" value="" style="endArrow=classic;html=1;rounded=0;exitX=0.5;exitY=1;exitDx=0;exitDy=0;" edge="1" parent="1c1d494c118603dd-1" source="JDyuIg-nVPSQk0EnNHT6-4">
          <mxGeometry width="50" height="50" relative="1" as="geometry">
            <mxPoint x="360" y="320" as="sourcePoint" />
            <mxPoint x="173" y="310" as="targetPoint" />
            <Array as="points">
              <mxPoint x="540" y="260" />
              <mxPoint x="173" y="260" />
            </Array>
          </mxGeometry>
        </mxCell>
        <mxCell id="JDyuIg-nVPSQk0EnNHT6-38" value="" style="endArrow=classic;html=1;rounded=0;exitX=1;exitY=0.5;exitDx=0;exitDy=0;entryX=0;entryY=0.5;entryDx=0;entryDy=0;" edge="1" parent="1c1d494c118603dd-1" source="JDyuIg-nVPSQk0EnNHT6-37" target="JDyuIg-nVPSQk0EnNHT6-15">
          <mxGeometry width="50" height="50" relative="1" as="geometry">
            <mxPoint x="370" y="520" as="sourcePoint" />
            <mxPoint x="420" y="470" as="targetPoint" />
          </mxGeometry>
        </mxCell>
        <mxCell id="JDyuIg-nVPSQk0EnNHT6-63" value="" style="endArrow=classic;html=1;rounded=0;exitX=1;exitY=0.5;exitDx=0;exitDy=0;entryX=0;entryY=0.5;entryDx=0;entryDy=0;" edge="1" parent="1c1d494c118603dd-1" source="JDyuIg-nVPSQk0EnNHT6-55" target="JDyuIg-nVPSQk0EnNHT6-62">
          <mxGeometry width="50" height="50" relative="1" as="geometry">
            <mxPoint x="470" y="940" as="sourcePoint" />
            <mxPoint x="520" y="890" as="targetPoint" />
          </mxGeometry>
        </mxCell>
        <mxCell id="JDyuIg-nVPSQk0EnNHT6-68" value="Không đồng ý" style="edgeStyle=orthogonalEdgeStyle;html=1;align=left;verticalAlign=bottom;endArrow=open;endSize=8;strokeColor=#ff0000;rounded=0;entryX=1;entryY=0.5;entryDx=0;entryDy=0;" edge="1" source="JDyuIg-nVPSQk0EnNHT6-67" parent="1c1d494c118603dd-1" target="JDyuIg-nVPSQk0EnNHT6-44">
          <mxGeometry x="-1" relative="1" as="geometry">
            <mxPoint x="990" y="740" as="targetPoint" />
            <Array as="points">
              <mxPoint x="990" y="1010" />
              <mxPoint x="990" y="730" />
            </Array>
          </mxGeometry>
        </mxCell>
        <mxCell id="JDyuIg-nVPSQk0EnNHT6-69" value="" style="edgeStyle=orthogonalEdgeStyle;html=1;align=left;verticalAlign=top;endArrow=open;endSize=8;strokeColor=#ff0000;rounded=0;entryX=1.1;entryY=0.432;entryDx=0;entryDy=0;entryPerimeter=0;" edge="1" source="JDyuIg-nVPSQk0EnNHT6-67" parent="1c1d494c118603dd-1" target="JDyuIg-nVPSQk0EnNHT6-57">
          <mxGeometry x="-0.8431" y="-20" relative="1" as="geometry">
            <mxPoint x="504" y="1077" as="targetPoint" />
            <mxPoint as="offset" />
          </mxGeometry>
        </mxCell>
        <mxCell id="JDyuIg-nVPSQk0EnNHT6-23" value="" style="endArrow=classic;html=1;rounded=0;exitX=0.98;exitY=0.058;exitDx=0;exitDy=0;exitPerimeter=0;" edge="1" parent="1" source="JDyuIg-nVPSQk0EnNHT6-22">
          <mxGeometry width="50" height="50" relative="1" as="geometry">
            <mxPoint x="76" y="350" as="sourcePoint" />
            <mxPoint x="80" y="400" as="targetPoint" />
          </mxGeometry>
        </mxCell>
        <mxCell id="JDyuIg-nVPSQk0EnNHT6-24" value="" style="endArrow=classic;html=1;rounded=0;" edge="1" parent="1">
          <mxGeometry width="50" height="50" relative="1" as="geometry">
            <mxPoint x="160" y="334" as="sourcePoint" />
            <mxPoint x="160" y="400" as="targetPoint" />
          </mxGeometry>
        </mxCell>
        <mxCell id="JDyuIg-nVPSQk0EnNHT6-27" value="" style="endArrow=classic;html=1;rounded=0;" edge="1" parent="1">
          <mxGeometry width="50" height="50" relative="1" as="geometry">
            <mxPoint x="250" y="333" as="sourcePoint" />
            <mxPoint x="251" y="400" as="targetPoint" />
          </mxGeometry>
        </mxCell>
        <mxCell id="JDyuIg-nVPSQk0EnNHT6-36" value="" style="endArrow=classic;html=1;rounded=0;exitX=0.26;exitY=0.49;exitDx=0;exitDy=0;exitPerimeter=0;" edge="1" parent="1" source="JDyuIg-nVPSQk0EnNHT6-31">
          <mxGeometry width="50" height="50" relative="1" as="geometry">
            <mxPoint x="410" y="540" as="sourcePoint" />
            <mxPoint x="209" y="610" as="targetPoint" />
          </mxGeometry>
        </mxCell>
        <mxCell id="JDyuIg-nVPSQk0EnNHT6-47" value="" style="endArrow=classic;html=1;rounded=0;exitX=0.5;exitY=1;exitDx=0;exitDy=0;" edge="1" parent="1" source="JDyuIg-nVPSQk0EnNHT6-45">
          <mxGeometry width="50" height="50" relative="1" as="geometry">
            <mxPoint x="410" y="950" as="sourcePoint" />
            <mxPoint x="545" y="920" as="targetPoint" />
          </mxGeometry>
        </mxCell>
        <mxCell id="JDyuIg-nVPSQk0EnNHT6-76" value="" style="endArrow=classic;html=1;rounded=0;" edge="1" parent="1">
          <mxGeometry width="50" height="50" relative="1" as="geometry">
            <mxPoint x="560" y="1270" as="sourcePoint" />
            <mxPoint x="561" y="1320" as="targetPoint" />
          </mxGeometry>
        </mxCell>
      </root>
    </mxGraphModel>
  </diagram>
</mxfile>
